:SAMPLES-PER-SECOND 30
:FULLY-SPECIFIED
:DEGREES
418
root  -10.4861 38.9339 10.5598 56.3814 80.4852 62.2106
RightUpLeg  -2.9381 -1.04821 -19.071
RightLeg  55.6292 -2.82702 -4.84721
RightFoot  14.1282 -4.14291 18.6101
RightToes  -5.8209e-011 0 -3.6325e-017
Spine  -0.212274 1.23557 -14.3528
Spine1  25.8561 -0.76635 1.45779
HEad  -18.75 -3.60916 -2.44286
LeftShoulder1  1.78664 -3.11746 -20.5635
LeftArm  18.5229 10.2559 -47.6802
LeftForeArm  -51.5506 -35.6352 -10.1979
LeftHand  -0.492899 3.42472 28.8156
RightShoulder  0.79188 -0.102888 16.7307
RightArm  -7.5082 -3.46251 54.5959
RightForeArm  14.2905 38.0812 7.90606
RightHand  -0.616503 5.12928 -7.0913
LeftUpLeg  -4.6194 -1.58816 -9.45428
LeftLeg  17.005 15.4313 3.29112
LeftFoot  -6.0761 0.0308717 0.115218
LeftToes  6.82088e-011 -2.45093e-011 5.71991e-013
419
root  -9.52653 39.0142 10.4707 61.0916 81.6013 67.1003
RightUpLeg  -5.73403 -1.57573 -18.1349
RightLeg  57.59 -4.36734 -7.7974
RightFoot  11.0179 -3.31986 17.0902
RightToes  -5.8209e-011 0 -3.6325e-017
Spine  -0.290841 0.652083 -14.1812
Spine1  25.8113 -1.65827 2.17398
HEad  -18.5206 -3.10797 -3.23407
LeftShoulder1  1.73819 -2.9398 -20.5503
LeftArm  15.5916 7.75112 -48.5793
LeftForeArm  -48.1367 -35.1126 -9.96148
LeftHand  -0.513661 3.3118 28.4062
RightShoulder  0.773726 -0.228593 17.1028
RightArm  -5.89894 -5.49353 56.1959
RightForeArm  15.009 31.4581 6.02693
RightHand  -0.798282 5.81921 -8.58064
LeftUpLeg  -2.83325 -1.33307 -9.21873
LeftLeg  17.0492 14.136 3.20714
LeftFoot  -7.53144 0.0484576 -0.0852257
LeftToes  6.82088e-011 -2.45093e-011 5.71991e-013
420
root  -8.60289 39.0737 10.4253 69.9283 82.7409 75.9494
RightUpLeg  -8.2801 -2.2133 -17.0925
RightLeg  56.9475 -5.68178 -9.73752
RightFoot  8.61541 -2.83828 16.3692
RightToes  -5.8209e-011 0 -3.6325e-017
Spine  -0.00602661 -0.0024107 -14.5661
Spine1  25.1636 -2.90769 3.6116
HEad  -19.0563 -2.90943 -3.55105
LeftShoulder1  1.59941 -2.50003 -20.1882
LeftArm  10.0106 6.49929 -50.4587
LeftForeArm  -41.6915 -37.0644 -10.4135
LeftHand  -0.63091 2.78079 27.7981
RightShoulder  0.770604 -0.257901 17.2325
RightArm  -4.55186 -7.99769 57.5477
RightForeArm  14.8901 25.3423 4.77888
RightHand  -0.797318 5.92443 -8.484
LeftUpLeg  -1.27204 -1.13662 -8.83759
LeftLeg  17.0018 12.4633 3.00495
LeftFoot  -8.62467 0.0492701 0.116491
LeftToes  6.82088e-011 -2.45093e-011 5.71991e-013
421
root  -7.70437 39.152 10.3858 82.0634 83.6697 88.1063
RightUpLeg  -10.4645 -2.96115 -16.0754
RightLeg  53.9134 -6.79171 -10.2799
RightFoot  5.94333 -2.31526 15.4104
RightToes  -5.8209e-011 0 -3.6325e-017
Spine  0.580443 -0.709118 -14.574
Spine1  24.2223 -4.04203 4.82564
HEad  -20.0447 -3.39282 -3.45154
LeftShoulder1  1.45582 -2.04355 -19.7623
LeftArm  4.87433 5.72826 -52.3822
LeftForeArm  -35.059 -40.8277 -11.485
LeftHand  -0.760876 2.11325 26.711
RightShoulder  0.829065 -0.0487066 17.4996
RightArm  -7.80778 -10.7915 58.137
RightForeArm  18.5975 19.5552 5.64803
RightHand  -0.600521 5.53071 -6.67507
LeftUpLeg  0.539555 -1.26651 -8.44717
LeftLeg  16.333 11.1188 2.85341
LeftFoot  -9.40065 0.0492568 0.42083
LeftToes  6.82088e-011 -2.45093e-011 5.71991e-013
422
root  -6.8356 39.239 10.3582 95.6882 84.2622 101.663
RightUpLeg  -12.18 -3.63308 -15.0678
RightLeg  48.4261 -7.99253 -9.8632
RightFoot  2.35887 -1.79497 15.0247
RightToes  -5.8209e-011 0 -3.6325e-017
Spine  0.991735 -1.38537 -14.1131
Spine1  23.4569 -4.92284 5.68154
HEad  -21.0424 -4.4317 -3.3557
LeftShoulder1  1.36213 -1.75993 -19.3679
LeftArm  1.85408 4.71936 -54.0064
LeftForeArm  -29.4353 -44.9658 -12.8747
LeftHand  -0.825664 1.61153 25.1733
RightShoulder  0.907213 0.21981 17.8945
RightArm  -20.4159 -13.5672 57.8483
RightForeArm  31.1057 13.0525 8.81436
RightHand  -0.318063 4.80914 -3.90502
LeftUpLeg  2.3546 -1.41755 -7.95304
LeftLeg  15.3692 10.0254 2.72366
LeftFoot  -10.1811 0.0574888 0.333221
LeftToes  6.82088e-011 -2.45093e-011 5.71991e-013
423
root  -5.99691 39.2662 10.3821 106.769 84.2367 112.522
RightUpLeg  -13.2341 -3.55776 -14.4456
RightLeg  40.2685 -9.61285 -8.8734
RightFoot  0.042112 -1.54408 15.3971
RightToes  -5.8209e-011 0 -3.6325e-017
Spine  1.05558 -1.90671 -14.0958
Spine1  23.0094 -5.65988 6.52943
HEad  -22.0154 -5.49491 -3.67205
LeftShoulder1  1.31486 -1.63842 -19.0355
LeftArm  0.762417 3.64761 -55.2479
LeftForeArm  -24.4018 -49.1514 -14.5675
LeftHand  -0.858979 1.26441 24.0247
RightShoulder  0.955206 0.376745 18.1635
RightArm  -30.5051 -16.0839 57.6768
RightForeArm  40.0921 7.42913 8.97392
RightHand  -0.0421197 3.98565 -0.786292
LeftUpLeg  3.73482 -1.33438 -7.59584
LeftLeg  14.8574 8.98954 2.51731
LeftFoot  -10.9999 0.0662121 -0.0452828
LeftToes  6.82088e-011 -2.45093e-011 5.71991e-013
424
root  -5.16176 39.27 10.4365 112.575 83.7665 118.008
RightUpLeg  -13.503 -2.2907 -14.4536
RightLeg  29.5698 -11.9366 -7.33122
RightFoot  0.809962 -1.60192 15.049
RightToes  -5.8209e-011 0 -3.6325e-017
Spine  0.872363 -2.37067 -14.518
Spine1  22.7273 -6.3373 7.4399
HEad  -23.0664 -6.0952 -4.39216
LeftShoulder1  1.29228 -1.59183 -18.8095
LeftArm  0.91355 3.18012 -55.9187
LeftForeArm  -19.1431 -53.8615 -16.9369
LeftHand  -0.917852 0.920248 23.7116
RightShoulder  0.975127 0.446521 18.2362
RightArm  -34.589 -18.2761 57.8307
RightForeArm  42.4408 4.14007 7.15428
RightHand  0.189106 3.10437 2.35879
LeftUpLeg  5.06783 -1.26905 -7.58645
LeftLeg  14.1784 8.2509 2.20287
LeftFoot  -11.4242 0.0684451 -0.370729
LeftToes  6.82088e-011 -2.45093e-011 5.71991e-013
425
root  -4.32351 39.3029 10.4802 115.914 83.2544 120.911
RightUpLeg  -13.3464 -1.98001 -14.376
RightLeg  17.3777 -12.3154 -5.07487
RightFoot  3.14161 -1.75619 13.9258
RightToes  -5.8209e-011 0 -3.6325e-017
Spine  0.456281 -2.93592 -14.5585
Spine1  22.5326 -6.97687 8.14523
HEad  -24.0202 -6.07702 -5.15753
LeftShoulder1  1.28324 -1.59066 -18.6246
LeftArm  1.77347 3.4529 -56.0328
LeftForeArm  -12.8482 -58.6851 -19.9977
LeftHand  -1.00234 0.464447 23.5252
RightShoulder  0.987579 0.50063 18.2097
RightArm  -37.1688 -20.3762 57.8487
RightForeArm  42.7058 2.38985 5.59904
RightHand  0.333931 2.03053 5.05121
LeftUpLeg  6.65762 -1.46594 -7.74578
LeftLeg  12.7035 7.9133 1.88178
LeftFoot  -11.4675 0.0681016 -0.697747
LeftToes  6.82088e-011 -2.45093e-011 5.71991e-013
426
root  -3.48292 39.3106 10.5491 118.852 82.7602 123.278
RightUpLeg  -13.4459 -6.70787 -12.9241
RightLeg  6.41318 -5.19386 -3.10383
RightFoot  4.86985 -1.93324 13.7405
RightToes  -5.8209e-011 0 -3.6325e-017
Spine  -0.203359 -3.5186 -14.2398
Spine1  22.4727 -7.55568 8.54615
HEad  -24.5873 -5.66104 -5.7327
LeftShoulder1  1.27755 -1.61239 -18.3893
LeftArm  3.15511 3.84148 -55.9621
LeftForeArm  -6.16159 -62.3716 -22.9196
LeftHand  -1.08863 -0.116587 22.887
RightShoulder  0.996352 0.548966 18.1235
RightArm  -39.0407 -22.35 57.5812
RightForeArm  41.9904 1.59355 4.67611
RightHand  0.373677 0.871296 6.84321
LeftUpLeg  8.14425 -1.64861 -7.79176
LeftLeg  11.1768 7.46238 1.56105
LeftFoot  -11.7015 0.0663124 -1.20452
LeftToes  6.82088e-011 -2.45093e-011 5.71991e-013
427
root  -2.63078 39.2442 10.6989 120.889 82.2857 124.863
RightUpLeg  -14.01 -9.06677 -11.9086
RightLeg  0.910636 2.03486 -1.663
RightFoot  6.1571 -2.23113 14.695
RightToes  -5.8209e-011 0 -3.6325e-017
Spine  -0.864228 -3.92464 -14.0508
Spine1  22.6123 -8.01655 8.86319
HEad  -24.7999 -5.27194 -6.25852
LeftShoulder1  1.27188 -1.61787 -18.2416
LeftArm  4.94247 3.80509 -55.9781
LeftForeArm  -1.81817 -64.3928 -24.871
LeftHand  -1.15107 -0.578161 22.3481
RightShoulder  1.00029 0.578256 18.0352
RightArm  -40.1709 -23.7636 57.0132
RightForeArm  40.7594 1.21265 4.16794
RightHand  0.357995 -0.0171244 7.76276
LeftUpLeg  9.47012 -1.51992 -7.56745
LeftLeg  10.3216 6.53729 1.2285
LeftFoot  -12.3325 0.0579285 -1.8508
LeftToes  6.82088e-011 -2.45093e-011 5.71991e-013
428
root  -1.75684 39.1143 10.9191 122.586 81.9361 126.575
RightUpLeg  -14.5614 -8.77252 -11.2381
RightLeg  1.32027 6.63434 -1.0946
RightFoot  8.11301 -2.57716 15.288
RightToes  -5.8209e-011 0 -3.6325e-017
Spine  -1.15768 -4.19786 -13.9462
Spine1  23.0367 -8.45239 9.15493
HEad  -25.0308 -5.14458 -6.97682
LeftShoulder1  1.29829 -1.68474 -18.4447
LeftArm  6.6571 3.53581 -56.11
LeftForeArm  -1.76705 -65.1544 -25.8863
LeftHand  -1.17029 -0.590012 22.6751
RightShoulder  0.996402 0.550725 18.1137
RightArm  -40.7601 -23.9578 56.0424
RightForeArm  39.4438 0.848401 3.77512
RightHand  0.328873 -0.48671 7.89009
LeftUpLeg  10.9722 -1.2838 -7.1589
LeftLeg  10.2361 5.47685 1.19453
LeftFoot  -13.2994 0.0342759 -2.63584
LeftToes  6.82088e-011 -2.45093e-011 5.71991e-013
